P3
1 2
255
255 0 255
0 255 255
