P3
27 27
255
0 0 255
0 0 0
0 0 0
0 0 0
0 0 0
0 0 0
0 0 0
0 0 0
0 0 0
0 0 0
0 0 0
0 0 0
0 0 0
0 0 0
0 0 0
0 0 0
0 0 0
0 0 0
0 0 0
0 0 0
0 0 0
0 0 0
0 0 0
0 0 0
0 0 0
0 0 0
0 0 0
0 0 255
0 0 255
0 0 0
0 0 0
0 0 0
0 0 0
0 0 0
0 0 0
0 0 0
0 0 0
0 0 0
0 0 0
0 0 0
0 0 0
0 0 0
0 0 0
0 0 0
0 0 0
0 0 0
0 0 0
0 0 0
0 0 0
0 0 0
0 0 0
0 0 0
0 0 0
0 0 0
0 0 255
0 255 0
0 0 255
0 0 0
0 0 0
0 0 0
0 0 0
0 0 0
0 0 0
0 0 0
0 0 0
0 0 0
0 0 0
0 0 0
0 0 0
0 0 0
0 0 0
0 0 0
0 0 0
0 0 0
0 0 0
0 0 0
0 0 0
0 0 0
0 0 0
0 0 0
0 0 0
0 0 255
255 0 0
255 0 0
0 0 255
0 0 0
0 0 0
0 0 0
0 0 0
0 0 0
0 0 0
0 0 0
0 0 0
0 0 0
0 0 0
0 0 0
0 0 0
0 0 0
0 0 0
0 0 0
0 0 0
0 0 0
0 0 0
0 0 0
0 0 0
0 0 0
0 0 0
0 0 0
0 0 255
0 0 255
255 0 0
0 0 255
0 0 255
0 0 0
0 0 0
0 0 0
0 0 0
0 0 0
0 0 0
0 0 0
0 0 0
0 0 0
0 0 0
0 0 0
0 0 0
0 0 0
0 0 0
0 0 0
0 0 0
0 0 0
0 0 0
0 0 0
0 0 0
0 0 0
0 0 0
0 0 255
0 255 0
0 0 255
0 0 255
0 255 0
0 0 255
0 0 0
0 0 0
0 0 0
0 0 0
0 0 0
0 0 0
0 0 0
0 0 0
0 0 0
0 0 0
0 0 0
0 0 0
0 0 0
0 0 0
0 0 0
0 0 0
0 0 0
0 0 0
0 0 0
0 0 0
0 0 0
0 0 255
255 0 0
255 0 0
0 255 0
255 0 0
255 0 0
0 0 255
0 0 0
0 0 0
0 0 0
0 0 0
0 0 0
0 0 0
0 0 0
0 0 0
0 0 0
0 0 0
0 0 0
0 0 0
0 0 0
0 0 0
0 0 0
0 0 0
0 0 0
0 0 0
0 0 0
0 0 0
0 0 255
0 0 255
255 0 0
0 255 0
0 255 0
255 0 0
0 0 255
0 0 255
0 0 0
0 0 0
0 0 0
0 0 0
0 0 0
0 0 0
0 0 0
0 0 0
0 0 0
0 0 0
0 0 0
0 0 0
0 0 0
0 0 0
0 0 0
0 0 0
0 0 0
0 0 0
0 0 0
0 0 255
0 255 0
0 0 255
0 255 0
0 0 255
0 255 0
0 0 255
0 255 0
0 0 255
0 0 0
0 0 0
0 0 0
0 0 0
0 0 0
0 0 0
0 0 0
0 0 0
0 0 0
0 0 0
0 0 0
0 0 0
0 0 0
0 0 0
0 0 0
0 0 0
0 0 0
0 0 0
0 0 255
255 0 0
255 0 0
255 0 0
255 0 0
255 0 0
255 0 0
255 0 0
255 0 0
0 0 255
0 0 0
0 0 0
0 0 0
0 0 0
0 0 0
0 0 0
0 0 0
0 0 0
0 0 0
0 0 0
0 0 0
0 0 0
0 0 0
0 0 0
0 0 0
0 0 0
0 0 0
0 0 255
0 0 255
255 0 0
255 0 0
255 0 0
255 0 0
255 0 0
255 0 0
255 0 0
0 0 255
0 0 255
0 0 0
0 0 0
0 0 0
0 0 0
0 0 0
0 0 0
0 0 0
0 0 0
0 0 0
0 0 0
0 0 0
0 0 0
0 0 0
0 0 0
0 0 0
0 0 0
0 0 255
0 255 0
0 0 255
255 0 0
255 0 0
255 0 0
255 0 0
255 0 0
255 0 0
0 0 255
0 255 0
0 0 255
0 0 0
0 0 0
0 0 0
0 0 0
0 0 0
0 0 0
0 0 0
0 0 0
0 0 0
0 0 0
0 0 0
0 0 0
0 0 0
0 0 0
0 0 0
0 0 255
255 0 0
255 0 0
0 0 255
255 0 0
255 0 0
255 0 0
255 0 0
255 0 0
0 0 255
255 0 0
255 0 0
0 0 255
0 0 0
0 0 0
0 0 0
0 0 0
0 0 0
0 0 0
0 0 0
0 0 0
0 0 0
0 0 0
0 0 0
0 0 0
0 0 0
0 0 0
0 0 255
0 0 255
255 0 0
0 0 255
0 0 255
255 0 0
255 0 0
255 0 0
255 0 0
0 0 255
0 0 255
255 0 0
0 0 255
0 0 255
0 0 0
0 0 0
0 0 0
0 0 0
0 0 0
0 0 0
0 0 0
0 0 0
0 0 0
0 0 0
0 0 0
0 0 0
0 0 0
0 0 255
0 255 0
0 0 255
0 0 255
0 255 0
0 0 255
255 0 0
255 0 0
255 0 0
0 0 255
0 255 0
0 0 255
0 0 255
0 255 0
0 0 255
0 0 0
0 0 0
0 0 0
0 0 0
0 0 0
0 0 0
0 0 0
0 0 0
0 0 0
0 0 0
0 0 0
0 0 0
0 0 255
255 0 0
255 0 0
0 255 0
255 0 0
255 0 0
0 0 255
255 0 0
255 0 0
0 0 255
255 0 0
255 0 0
0 255 0
255 0 0
255 0 0
0 0 255
0 0 0
0 0 0
0 0 0
0 0 0
0 0 0
0 0 0
0 0 0
0 0 0
0 0 0
0 0 0
0 0 0
0 0 255
0 0 255
255 0 0
0 255 0
0 255 0
255 0 0
0 0 255
0 0 255
255 0 0
0 0 255
0 0 255
255 0 0
0 255 0
0 255 0
255 0 0
0 0 255
0 0 255
0 0 0
0 0 0
0 0 0
0 0 0
0 0 0
0 0 0
0 0 0
0 0 0
0 0 0
0 0 0
0 0 255
0 255 0
0 0 255
0 255 0
0 0 255
0 255 0
0 0 255
0 255 0
0 0 255
0 0 255
0 255 0
0 0 255
0 255 0
0 0 255
0 255 0
0 0 255
0 255 0
0 0 255
0 0 0
0 0 0
0 0 0
0 0 0
0 0 0
0 0 0
0 0 0
0 0 0
0 0 0
0 0 255
255 0 0
255 0 0
255 0 0
255 0 0
255 0 0
255 0 0
255 0 0
255 0 0
0 255 0
255 0 0
255 0 0
255 0 0
255 0 0
255 0 0
255 0 0
255 0 0
255 0 0
0 0 255
0 0 0
0 0 0
0 0 0
0 0 0
0 0 0
0 0 0
0 0 0
0 0 0
0 0 255
0 0 255
255 0 0
255 0 0
255 0 0
255 0 0
255 0 0
255 0 0
255 0 0
0 255 0
0 255 0
255 0 0
255 0 0
255 0 0
255 0 0
255 0 0
255 0 0
255 0 0
0 0 255
0 0 255
0 0 0
0 0 0
0 0 0
0 0 0
0 0 0
0 0 0
0 0 0
0 0 255
0 255 0
0 0 255
255 0 0
255 0 0
255 0 0
255 0 0
255 0 0
255 0 0
0 255 0
0 0 255
0 255 0
255 0 0
255 0 0
255 0 0
255 0 0
255 0 0
255 0 0
0 0 255
0 255 0
0 0 255
0 0 0
0 0 0
0 0 0
0 0 0
0 0 0
0 0 0
0 0 255
255 0 0
255 0 0
0 0 255
255 0 0
255 0 0
255 0 0
255 0 0
255 0 0
0 255 0
255 0 0
255 0 0
0 255 0
255 0 0
255 0 0
255 0 0
255 0 0
255 0 0
0 0 255
255 0 0
255 0 0
0 0 255
0 0 0
0 0 0
0 0 0
0 0 0
0 0 0
0 0 255
0 0 255
255 0 0
0 0 255
0 0 255
255 0 0
255 0 0
255 0 0
255 0 0
0 255 0
0 255 0
255 0 0
0 255 0
0 255 0
255 0 0
255 0 0
255 0 0
255 0 0
0 0 255
0 0 255
255 0 0
0 0 255
0 0 255
0 0 0
0 0 0
0 0 0
0 0 0
0 0 255
0 255 0
0 0 255
0 0 255
0 255 0
0 0 255
255 0 0
255 0 0
255 0 0
0 255 0
0 0 255
0 255 0
0 255 0
0 0 255
0 255 0
255 0 0
255 0 0
255 0 0
0 0 255
0 255 0
0 0 255
0 0 255
0 255 0
0 0 255
0 0 0
0 0 0
0 0 0
0 0 255
255 0 0
255 0 0
0 255 0
255 0 0
255 0 0
0 0 255
255 0 0
255 0 0
0 255 0
255 0 0
255 0 0
0 0 255
255 0 0
255 0 0
0 255 0
255 0 0
255 0 0
0 0 255
255 0 0
255 0 0
0 255 0
255 0 0
255 0 0
0 0 255
0 0 0
0 0 0
0 0 255
0 0 255
255 0 0
0 255 0
0 255 0
255 0 0
0 0 255
0 0 255
255 0 0
0 255 0
0 255 0
255 0 0
0 0 255
0 0 255
255 0 0
0 255 0
0 255 0
255 0 0
0 0 255
0 0 255
255 0 0
0 255 0
0 255 0
255 0 0
0 0 255
0 0 255
0 0 0
0 0 255
0 255 0
0 0 255
0 255 0
0 0 255
0 255 0
0 0 255
0 255 0
0 0 255
0 255 0
0 0 255
0 255 0
0 0 255
0 255 0
0 0 255
0 255 0
0 0 255
0 255 0
0 0 255
0 255 0
0 0 255
0 255 0
0 0 255
0 255 0
0 0 255
0 255 0
0 0 255
