P3
1 2
255
0 0 0
255 255 255
